PathFileType  4	(X/Y/Z) C:\Users\antoi\Documents\MyRepositories\mobilecap\ResultsAnalysis
DataRate	CameraRate	NumFrames	NumMarkers	Units	OrigDataRate	OrigDataStartFrame	OrigNumFrames
100.0	100.0	4	51	mm	100.0	845	1351
Frame#	Time	r_knee			r_shank_antsup			r_ankle			r_calc			r_5meta			r_toe			L_knee			L_shank_antsup			L_ankle			L_calc			L_5meta			L_toe			r_sh2			r_sh3			r_sh4			L_sh2			L_sh3			r_thigh1			r_thigh2			r_thigh3			r_thigh4			r_thigh5			L_thigh1			L_thigh2			L_thigh3			L_thigh4			r.ASIS			r.PSIS			L.ASIS			L.PSIS			C7			R_Shoulder			L_Shoulder			R_Sternum			L_Sternum			R_humerus			R_elbow_med			R_elbow_lat			R_forearm			R_wrist_radius			R_wrist_ulna			L_humerus			L_elbow_med			L_elbow_lat			L_forearm			L_wrist_radius			L_wrist_ulna			R_HJC			L_HJC			R_HJC_reg			L_HJC_reg			
		X1	Y1	Z1	X2	Y2	Z2	X3	Y3	Z3	X4	Y4	Z4	X5	Y5	Z5	X6	Y6	Z6	X7	Y7	Z7	X8	Y8	Z8	X9	Y9	Z9	X10	Y10	Z10	X11	Y11	Z11	X12	Y12	Z12	X13	Y13	Z13	X14	Y14	Z14	X15	Y15	Z15	X16	Y16	Z16	X17	Y17	Z17	X18	Y18	Z18	X19	Y19	Z19	X20	Y20	Z20	X21	Y21	Z21	X22	Y22	Z22	X23	Y23	Z23	X24	Y24	Z24	X25	Y25	Z25	X26	Y26	Z26	X27	Y27	Z27	X28	Y28	Z28	X29	Y29	Z29	X30	Y30	Z30	X31	Y31	Z31	X32	Y32	Z32	X33	Y33	Z33	X34	Y34	Z34	X35	Y35	Z35	X36	Y36	Z36	X37	Y37	Z37	X38	Y38	Z38	X39	Y39	Z39	X40	Y40	Z40	X41	Y41	Z41	X42	Y42	Z42	X43	Y43	Z43	X44	Y44	Z44	X45	Y45	Z45	X46	Y46	Z46	X47	Y47	Z47	X48	Y48	Z48	X49	Y49	Z49	X50	Y50	Z50	X51	Y51	Z51	

845	8.44000000	-231.54073	550.60641	-423.84000	-195.81514	452.53957	-425.90934	-290.62002	121.94409	-442.82446	-365.92305	73.13223	-499.29299	-188.84637	47.46492	-376.90076	-120.42957	74.71958	-430.07558	-241.71515	554.31034	-815.44925	-251.51848	468.46688	-845.44306	-292.75044	127.73330	-823.49544	-361.78400	73.77580	-758.52951	-194.95712	50.38024	-887.82904	-121.97428	75.81579	-840.11247	-225.14699	346.15430	-398.27503	-260.95858	477.41227	-395.42264	-303.39410	370.61855	-387.53918	-337.30501	476.13429	-818.79368	-336.70189	354.28724	-829.27366	-140.76549	871.65384	-406.40419	-139.67934	761.67285	-412.84003	-195.23045	734.56227	-388.92726	-253.66173	864.74585	-413.73695	-244.39356	749.62041	-411.06931	-135.26553	838.21966	-805.62229	-142.41684	697.53199	-811.39405	-245.56893	842.53241	-810.89310	-256.50639	705.85499	-815.73742	-123.80475	1087.52848	-467.77244	-300.08128	1089.62266	-550.36130	-104.24132	1079.56429	-722.00788	-293.97030	1090.79866	-659.26089	-236.99248	1631.46817	-596.59708	-170.09955	1571.79902	-427.48862	-181.37653	1575.85877	-767.83622	-111.46579	1551.21091	-568.32735	-111.81340	1547.99411	-623.75594	-171.89448	1408.77956	-366.87846	-258.60701	1213.73887	-420.83281	-249.39579	1227.76235	-338.54451	-185.42437	1067.24499	-311.13375	-136.46194	982.45704	-315.51413	-181.21797	982.40318	-300.40171	-206.80369	1446.38667	-843.26354	-255.97144	1215.00905	-770.84576	-250.42698	1224.72117	-852.04817	-208.26898	1164.81604	-879.85747	-148.83494	994.72261	-886.80966	-188.98451	986.29344	-894.78270	-195.81112	966.85096	-491.79128	-187.03443	967.93945	-698.56302	-173.55815	995.52552	-507.54581	-164.12466	997.34075	-675.64482	
846	8.45000000	-231.24589	550.44995	-423.16711	-195.56007	452.40955	-425.43191	-290.59310	121.93014	-442.76441	-365.87642	73.14998	-499.28839	-188.84332	47.46024	-376.87984	-120.43251	74.67912	-430.05020	-241.75074	554.36573	-814.89793	-251.46381	468.58170	-845.09558	-292.73511	127.78041	-823.46160	-361.65809	73.75325	-758.52390	-194.95489	50.39050	-887.83460	-121.96145	75.80948	-840.08781	-224.97213	346.03313	-398.04427	-260.54342	476.96270	-395.07068	-303.39670	370.52603	-387.19189	-337.27441	476.14997	-818.38557	-336.81081	354.29492	-828.78488	-140.34279	871.40841	-405.52496	-139.20959	761.56112	-412.17645	-194.63096	734.38057	-388.21913	-253.14094	864.73854	-412.66176	-243.91055	749.48683	-410.58428	-135.43512	838.19563	-804.92568	-142.44825	697.41279	-810.60995	-245.61877	842.49158	-809.86863	-256.63155	705.90490	-815.22407	-123.28523	1087.43637	-466.97002	-299.66232	1089.63155	-549.30809	-104.10496	1079.46539	-721.14273	-293.73934	1090.74454	-658.39806	-236.35136	1631.37650	-595.36371	-169.20305	1571.73305	-426.13189	-181.04246	1575.85155	-766.64946	-110.84347	1551.11464	-567.22845	-111.21340	1547.89970	-622.73615	-171.21587	1408.70286	-365.73175	-257.82426	1213.58229	-419.92092	-249.02544	1227.80486	-337.38859	-186.03796	1066.97647	-309.80940	-137.57865	981.82654	-314.13785	-182.32930	982.17960	-298.89066	-206.71136	1446.42127	-841.92257	-256.07927	1215.20054	-769.41266	-250.67615	1224.82250	-850.66428	-208.59616	1164.87178	-878.59313	-149.51035	994.55077	-885.33403	-189.70992	986.22243	-893.28799	-195.41225	966.79767	-490.89548	-186.86899	967.86385	-697.67708	-173.14124	995.55523	-506.58487	-164.01645	997.26969	-674.64138	
847	8.46000000	-230.82452	550.33719	-422.53569	-195.16842	452.27442	-424.95552	-290.56677	121.89080	-442.70019	-365.78909	73.10972	-499.24707	-188.85569	47.46053	-376.88294	-120.43060	74.68310	-430.05627	-241.76894	554.46559	-814.46062	-251.46037	468.71101	-844.76667	-292.72239	127.80925	-823.42111	-361.57605	73.62920	-758.49676	-194.94634	50.39525	-887.83167	-121.94909	75.81023	-840.06164	-224.75382	345.81120	-397.93568	-260.13275	476.65250	-394.70088	-303.69809	370.44584	-386.84358	-337.26719	476.17282	-817.93713	-336.83056	354.32700	-828.45799	-139.83187	871.22809	-404.92580	-138.67331	761.55044	-411.37246	-194.05103	734.25521	-387.49005	-252.58471	864.57634	-411.80504	-243.39249	749.42298	-409.77134	-135.52598	838.21153	-804.21302	-142.35866	697.43997	-810.01831	-245.66267	842.52712	-808.97473	-256.70549	705.95576	-814.78878	-122.73172	1087.30211	-466.27007	-299.25120	1089.66875	-548.33933	-104.26371	1079.30255	-720.15144	-293.51739	1090.67700	-657.31362	-235.70691	1631.26239	-593.99836	-168.34710	1571.69960	-424.73293	-180.63655	1575.91990	-765.60402	-110.20946	1551.02467	-566.14984	-110.61085	1547.83107	-621.61928	-170.56517	1408.60742	-364.35635	-257.56856	1213.55852	-418.65996	-248.62440	1227.84260	-336.05957	-186.57575	1066.65595	-308.55452	-138.64641	981.21546	-312.76796	-183.38888	981.87642	-297.49626	-206.58899	1446.46969	-840.68951	-255.97634	1215.42402	-768.14227	-250.83485	1224.85302	-849.20784	-208.86036	1164.85586	-877.20294	-150.13840	994.41267	-883.98403	-190.30138	986.20830	-891.73043	-195.05457	966.73507	-489.94712	-186.88276	967.74315	-696.74405	-172.88047	995.66848	-505.67177	-164.04936	997.22118	-673.52012	
848	8.47000000	-230.34037	550.20949	-422.07369	-194.69170	452.10956	-424.59840	-290.54403	121.85412	-442.64671	-365.74301	73.05158	-499.22190	-188.86239	47.44211	-376.88548	-120.42652	74.70623	-430.06516	-241.77897	554.58752	-814.19355	-251.47805	468.81573	-844.36825	-292.72221	127.84283	-823.35510	-361.61371	73.57267	-758.48198	-194.93843	50.40139	-887.82232	-121.94051	75.82690	-840.06116	-224.37406	345.45055	-397.79483	-259.67860	476.73382	-394.25697	-303.85559	370.41401	-386.56824	-337.27470	476.22055	-817.48722	-336.74191	354.43492	-828.45215	-139.19459	871.16907	-404.38215	-138.02476	761.47478	-410.68682	-193.46005	734.20722	-386.78560	-251.93751	864.31708	-411.11727	-242.81261	749.35762	-408.79188	-135.43641	838.24938	-803.48570	-142.33678	697.53230	-809.56971	-245.69697	842.54734	-808.11512	-256.73912	705.96445	-814.02070	-122.21722	1087.18211	-465.52797	-298.93910	1089.70137	-547.25152	-104.59039	1079.15717	-719.08777	-293.34563	1090.64351	-656.03180	-235.06335	1631.21101	-592.63024	-167.50110	1571.58386	-423.44678	-180.20299	1576.00712	-764.45463	-109.50580	1550.95581	-565.02093	-109.99556	1547.82245	-620.48302	-169.83757	1408.37844	-363.16033	-257.79693	1213.84556	-417.01733	-248.25212	1227.88100	-334.62714	-187.02092	1066.31182	-307.26650	-139.59918	980.62487	-311.39951	-184.32943	981.50786	-296.16801	-206.42099	1446.53146	-839.63209	-255.78730	1215.60109	-766.70673	-250.90287	1224.88930	-847.69697	-209.08609	1164.83773	-875.77064	-150.65042	994.36596	-882.70296	-190.81485	986.18955	-890.21952	-194.73783	966.68132	-488.90288	-187.02789	967.64394	-695.71763	-172.73372	995.76280	-504.77309	-164.11535	997.21445	-672.38262	
